<mxfile host="app.diagrams.net" agent="Mozilla/5.0 (Windows NT 10.0; Win64; x64) AppleWebKit/537.36 (KHTML, like Gecko) Chrome/135.0.0.0 Safari/537.36" version="26.2.13">
  <diagram name="Страница — 1" id="PtERw0xOoVtdUdhSGjrE">
    <mxGraphModel dx="1904" dy="2266" grid="1" gridSize="10" guides="1" tooltips="1" connect="1" arrows="1" fold="1" page="1" pageScale="1" pageWidth="827" pageHeight="1169" math="0" shadow="0">
      <root>
        <mxCell id="0" />
        <mxCell id="1" parent="0" />
        <mxCell id="188" style="edgeStyle=none;html=1;endArrow=none;endFill=0;" parent="1" source="190" target="196" edge="1">
          <mxGeometry relative="1" as="geometry" />
        </mxCell>
        <mxCell id="189" style="edgeStyle=none;html=1;endArrow=none;endFill=0;" parent="1" source="190" target="194" edge="1">
          <mxGeometry relative="1" as="geometry" />
        </mxCell>
        <mxCell id="200" style="edgeStyle=none;html=1;fillColor=#e51400;strokeColor=#B20000;endArrow=none;endFill=0;dashed=1;" parent="1" source="190" target="197" edge="1">
          <mxGeometry relative="1" as="geometry" />
        </mxCell>
        <mxCell id="190" value="1" style="ellipse;whiteSpace=wrap;html=1;aspect=fixed;" parent="1" vertex="1">
          <mxGeometry x="740" y="-1160" width="40" height="40" as="geometry" />
        </mxCell>
        <mxCell id="191" style="edgeStyle=none;html=1;endArrow=none;endFill=0;" parent="1" source="194" target="196" edge="1">
          <mxGeometry relative="1" as="geometry" />
        </mxCell>
        <mxCell id="192" style="edgeStyle=none;html=1;endArrow=none;endFill=0;" parent="1" source="194" target="197" edge="1">
          <mxGeometry relative="1" as="geometry" />
        </mxCell>
        <mxCell id="193" style="edgeStyle=none;html=1;endArrow=none;endFill=0;" parent="1" source="194" target="198" edge="1">
          <mxGeometry relative="1" as="geometry" />
        </mxCell>
        <mxCell id="194" value="3" style="ellipse;whiteSpace=wrap;html=1;aspect=fixed;" parent="1" vertex="1">
          <mxGeometry x="740" y="-1080" width="40" height="40" as="geometry" />
        </mxCell>
        <mxCell id="195" style="edgeStyle=none;html=1;endArrow=none;endFill=0;" parent="1" source="196" target="198" edge="1">
          <mxGeometry relative="1" as="geometry" />
        </mxCell>
        <mxCell id="201" style="edgeStyle=none;html=1;fillColor=#e51400;strokeColor=#B20000;endArrow=none;endFill=0;dashed=1;" parent="1" source="196" target="197" edge="1">
          <mxGeometry relative="1" as="geometry" />
        </mxCell>
        <mxCell id="196" value="2" style="ellipse;whiteSpace=wrap;html=1;aspect=fixed;" parent="1" vertex="1">
          <mxGeometry x="840" y="-1160" width="40" height="40" as="geometry" />
        </mxCell>
        <mxCell id="202" style="edgeStyle=none;html=1;fillColor=#e51400;strokeColor=#B20000;endArrow=none;endFill=0;dashed=1;" parent="1" source="197" target="198" edge="1">
          <mxGeometry relative="1" as="geometry" />
        </mxCell>
        <mxCell id="197" value="4" style="ellipse;whiteSpace=wrap;html=1;aspect=fixed;" parent="1" vertex="1">
          <mxGeometry x="840" y="-1080" width="40" height="40" as="geometry" />
        </mxCell>
        <mxCell id="203" style="edgeStyle=none;html=1;fillColor=#e51400;strokeColor=#B20000;endArrow=none;endFill=0;dashed=1;" parent="1" source="198" target="190" edge="1">
          <mxGeometry relative="1" as="geometry" />
        </mxCell>
        <mxCell id="198" value="5" style="ellipse;whiteSpace=wrap;html=1;aspect=fixed;" parent="1" vertex="1">
          <mxGeometry x="790" y="-1020" width="40" height="40" as="geometry" />
        </mxCell>
        <mxCell id="199" style="edgeStyle=none;html=1;endArrow=none;endFill=0;" parent="1" source="197" target="197" edge="1">
          <mxGeometry relative="1" as="geometry" />
        </mxCell>
        <mxCell id="i0VjAuOUxVdBlSVnc6zS-203" value="" style="endArrow=none;html=1;rounded=0;" edge="1" parent="1">
          <mxGeometry width="50" height="50" relative="1" as="geometry">
            <mxPoint x="740" y="-955.08" as="sourcePoint" />
            <mxPoint x="770" y="-955.08" as="targetPoint" />
          </mxGeometry>
        </mxCell>
        <mxCell id="i0VjAuOUxVdBlSVnc6zS-204" value="Неориентированный граф" style="text;html=1;align=center;verticalAlign=middle;resizable=0;points=[];autosize=1;strokeColor=none;fillColor=none;" vertex="1" parent="1">
          <mxGeometry x="770" y="-970" width="170" height="30" as="geometry" />
        </mxCell>
        <mxCell id="i0VjAuOUxVdBlSVnc6zS-205" value="" style="endArrow=none;html=1;rounded=0;fillColor=#e51400;strokeColor=#B20000;dashed=1;" edge="1" parent="1">
          <mxGeometry width="50" height="50" relative="1" as="geometry">
            <mxPoint x="740" y="-935.08" as="sourcePoint" />
            <mxPoint x="770" y="-935.08" as="targetPoint" />
          </mxGeometry>
        </mxCell>
        <mxCell id="i0VjAuOUxVdBlSVnc6zS-206" value="Дополнение графа" style="text;html=1;align=center;verticalAlign=middle;resizable=0;points=[];autosize=1;strokeColor=none;fillColor=none;" vertex="1" parent="1">
          <mxGeometry x="770" y="-950" width="130" height="30" as="geometry" />
        </mxCell>
        <mxCell id="i0VjAuOUxVdBlSVnc6zS-207" style="edgeStyle=none;html=1;" edge="1" parent="1" source="i0VjAuOUxVdBlSVnc6zS-208" target="i0VjAuOUxVdBlSVnc6zS-210">
          <mxGeometry relative="1" as="geometry" />
        </mxCell>
        <mxCell id="i0VjAuOUxVdBlSVnc6zS-208" value="Начало" style="rounded=1;whiteSpace=wrap;html=1;arcSize=50;" vertex="1" parent="1">
          <mxGeometry x="10" y="-1160" width="200" height="30" as="geometry" />
        </mxCell>
        <mxCell id="i0VjAuOUxVdBlSVnc6zS-209" style="edgeStyle=none;html=1;" edge="1" parent="1" source="i0VjAuOUxVdBlSVnc6zS-210" target="i0VjAuOUxVdBlSVnc6zS-212">
          <mxGeometry relative="1" as="geometry" />
        </mxCell>
        <mxCell id="i0VjAuOUxVdBlSVnc6zS-210" value="i = 1" style="rounded=0;whiteSpace=wrap;html=1;" vertex="1" parent="1">
          <mxGeometry x="10" y="-1110" width="200" height="30" as="geometry" />
        </mxCell>
        <mxCell id="i0VjAuOUxVdBlSVnc6zS-211" style="edgeStyle=none;html=1;" edge="1" parent="1" source="i0VjAuOUxVdBlSVnc6zS-212" target="i0VjAuOUxVdBlSVnc6zS-214">
          <mxGeometry relative="1" as="geometry" />
        </mxCell>
        <mxCell id="i0VjAuOUxVdBlSVnc6zS-212" value="Ввод матрицы&lt;br&gt;&lt;div&gt;&lt;font style=&quot;color: rgb(0, 0, 0);&quot;&gt;i &amp;gt; 5&lt;/font&gt;&lt;/div&gt;" style="shape=loopLimit;whiteSpace=wrap;html=1;" vertex="1" parent="1">
          <mxGeometry x="10" y="-1060" width="200" height="40" as="geometry" />
        </mxCell>
        <mxCell id="i0VjAuOUxVdBlSVnc6zS-213" style="edgeStyle=none;html=1;" edge="1" parent="1" source="i0VjAuOUxVdBlSVnc6zS-214" target="i0VjAuOUxVdBlSVnc6zS-216">
          <mxGeometry relative="1" as="geometry" />
        </mxCell>
        <mxCell id="i0VjAuOUxVdBlSVnc6zS-214" value="j = 1" style="rounded=0;whiteSpace=wrap;html=1;" vertex="1" parent="1">
          <mxGeometry x="10" y="-1000" width="200" height="30" as="geometry" />
        </mxCell>
        <mxCell id="i0VjAuOUxVdBlSVnc6zS-215" style="edgeStyle=none;html=1;" edge="1" parent="1" source="i0VjAuOUxVdBlSVnc6zS-216" target="i0VjAuOUxVdBlSVnc6zS-218">
          <mxGeometry relative="1" as="geometry" />
        </mxCell>
        <mxCell id="i0VjAuOUxVdBlSVnc6zS-216" value="Ввод ячейки&lt;br&gt;&lt;div&gt;&lt;font style=&quot;color: rgb(0, 0, 0);&quot;&gt;j &amp;gt; 5&lt;/font&gt;&lt;/div&gt;" style="shape=loopLimit;whiteSpace=wrap;html=1;" vertex="1" parent="1">
          <mxGeometry x="10" y="-950" width="200" height="40" as="geometry" />
        </mxCell>
        <mxCell id="i0VjAuOUxVdBlSVnc6zS-317" style="edgeStyle=orthogonalEdgeStyle;rounded=0;orthogonalLoop=1;jettySize=auto;html=1;" edge="1" parent="1" source="i0VjAuOUxVdBlSVnc6zS-218" target="i0VjAuOUxVdBlSVnc6zS-233">
          <mxGeometry relative="1" as="geometry" />
        </mxCell>
        <mxCell id="i0VjAuOUxVdBlSVnc6zS-218" value="Ввод matrix[i][j]" style="shape=parallelogram;perimeter=parallelogramPerimeter;whiteSpace=wrap;html=1;fixedSize=1;" vertex="1" parent="1">
          <mxGeometry x="10" y="-890" width="200" height="30" as="geometry" />
        </mxCell>
        <mxCell id="i0VjAuOUxVdBlSVnc6zS-219" value="matrix - матрица&lt;div&gt;смежности&lt;/div&gt;" style="strokeWidth=1;html=1;shape=mxgraph.flowchart.annotation_1;align=left;pointerEvents=1;" vertex="1" parent="1">
          <mxGeometry x="240" y="-890" width="5" height="30" as="geometry" />
        </mxCell>
        <mxCell id="i0VjAuOUxVdBlSVnc6zS-220" value="" style="endArrow=none;html=1;rounded=0;entryX=0;entryY=0.5;entryDx=0;entryDy=0;entryPerimeter=0;dashed=1;" edge="1" parent="1" target="i0VjAuOUxVdBlSVnc6zS-219">
          <mxGeometry width="50" height="50" relative="1" as="geometry">
            <mxPoint x="200" y="-875" as="sourcePoint" />
            <mxPoint x="290" y="-885" as="targetPoint" />
          </mxGeometry>
        </mxCell>
        <mxCell id="i0VjAuOUxVdBlSVnc6zS-221" style="edgeStyle=none;html=1;" edge="1" parent="1" source="i0VjAuOUxVdBlSVnc6zS-222">
          <mxGeometry relative="1" as="geometry">
            <mxPoint x="110" y="-710" as="targetPoint" />
          </mxGeometry>
        </mxCell>
        <mxCell id="i0VjAuOUxVdBlSVnc6zS-316" style="edgeStyle=orthogonalEdgeStyle;rounded=0;orthogonalLoop=1;jettySize=auto;html=1;" edge="1" parent="1" source="i0VjAuOUxVdBlSVnc6zS-222" target="i0VjAuOUxVdBlSVnc6zS-315">
          <mxGeometry relative="1" as="geometry" />
        </mxCell>
        <mxCell id="i0VjAuOUxVdBlSVnc6zS-222" value="matrix[i][j] = 1 или&lt;div&gt;i = j&lt;/div&gt;" style="rhombus;whiteSpace=wrap;html=1;" vertex="1" parent="1">
          <mxGeometry x="10" y="-790" width="200" height="60" as="geometry" />
        </mxCell>
        <mxCell id="i0VjAuOUxVdBlSVnc6zS-223" style="edgeStyle=none;html=1;" edge="1" parent="1">
          <mxGeometry relative="1" as="geometry">
            <mxPoint x="110" y="-640" as="targetPoint" />
            <mxPoint x="110" y="-680" as="sourcePoint" />
          </mxGeometry>
        </mxCell>
        <mxCell id="i0VjAuOUxVdBlSVnc6zS-227" value="" style="endArrow=none;html=1;" edge="1" parent="1">
          <mxGeometry width="50" height="50" relative="1" as="geometry">
            <mxPoint x="110" y="-660" as="sourcePoint" />
            <mxPoint x="330" y="-660" as="targetPoint" />
          </mxGeometry>
        </mxCell>
        <mxCell id="i0VjAuOUxVdBlSVnc6zS-228" value="" style="endArrow=none;html=1;entryX=0.5;entryY=1;entryDx=0;entryDy=0;" edge="1" parent="1" target="i0VjAuOUxVdBlSVnc6zS-315">
          <mxGeometry width="50" height="50" relative="1" as="geometry">
            <mxPoint x="330" y="-660" as="sourcePoint" />
            <mxPoint x="380" y="-630" as="targetPoint" />
          </mxGeometry>
        </mxCell>
        <mxCell id="i0VjAuOUxVdBlSVnc6zS-229" value="Да" style="text;html=1;align=center;verticalAlign=middle;resizable=0;points=[];autosize=1;strokeColor=none;fillColor=none;" vertex="1" parent="1">
          <mxGeometry x="70" y="-740" width="40" height="30" as="geometry" />
        </mxCell>
        <mxCell id="i0VjAuOUxVdBlSVnc6zS-230" value="Нет" style="text;html=1;align=center;verticalAlign=middle;resizable=0;points=[];autosize=1;strokeColor=none;fillColor=none;" vertex="1" parent="1">
          <mxGeometry x="200" y="-790" width="40" height="30" as="geometry" />
        </mxCell>
        <mxCell id="i0VjAuOUxVdBlSVnc6zS-318" style="edgeStyle=orthogonalEdgeStyle;rounded=0;orthogonalLoop=1;jettySize=auto;html=1;" edge="1" parent="1" source="i0VjAuOUxVdBlSVnc6zS-233" target="i0VjAuOUxVdBlSVnc6zS-222">
          <mxGeometry relative="1" as="geometry" />
        </mxCell>
        <mxCell id="i0VjAuOUxVdBlSVnc6zS-233" value="Вывод matrix[i][j]" style="shape=parallelogram;perimeter=parallelogramPerimeter;whiteSpace=wrap;html=1;fixedSize=1;" vertex="1" parent="1">
          <mxGeometry x="10" y="-840" width="200" height="30" as="geometry" />
        </mxCell>
        <mxCell id="i0VjAuOUxVdBlSVnc6zS-234" style="edgeStyle=none;html=1;" edge="1" parent="1" source="i0VjAuOUxVdBlSVnc6zS-235" target="i0VjAuOUxVdBlSVnc6zS-237">
          <mxGeometry relative="1" as="geometry" />
        </mxCell>
        <mxCell id="i0VjAuOUxVdBlSVnc6zS-235" value="j = j + 1" style="rounded=0;whiteSpace=wrap;html=1;" vertex="1" parent="1">
          <mxGeometry x="10" y="-640" width="200" height="30" as="geometry" />
        </mxCell>
        <mxCell id="i0VjAuOUxVdBlSVnc6zS-236" style="edgeStyle=none;html=1;" edge="1" parent="1" source="i0VjAuOUxVdBlSVnc6zS-237" target="i0VjAuOUxVdBlSVnc6zS-239">
          <mxGeometry relative="1" as="geometry" />
        </mxCell>
        <mxCell id="i0VjAuOUxVdBlSVnc6zS-237" value="&lt;span style=&quot;color: rgb(0, 0, 0);&quot;&gt;Ввод ячейки&lt;/span&gt;" style="shape=loopLimit;whiteSpace=wrap;html=1;direction=west;" vertex="1" parent="1">
          <mxGeometry x="10" y="-590" width="200" height="40" as="geometry" />
        </mxCell>
        <mxCell id="i0VjAuOUxVdBlSVnc6zS-238" style="edgeStyle=none;html=1;" edge="1" parent="1" source="i0VjAuOUxVdBlSVnc6zS-239" target="i0VjAuOUxVdBlSVnc6zS-241">
          <mxGeometry relative="1" as="geometry" />
        </mxCell>
        <mxCell id="i0VjAuOUxVdBlSVnc6zS-239" value="i = i + 1" style="rounded=0;whiteSpace=wrap;html=1;" vertex="1" parent="1">
          <mxGeometry x="10" y="-530" width="200" height="30" as="geometry" />
        </mxCell>
        <mxCell id="i0VjAuOUxVdBlSVnc6zS-240" style="edgeStyle=none;html=1;" edge="1" parent="1" source="i0VjAuOUxVdBlSVnc6zS-241" target="i0VjAuOUxVdBlSVnc6zS-242">
          <mxGeometry relative="1" as="geometry" />
        </mxCell>
        <mxCell id="i0VjAuOUxVdBlSVnc6zS-241" value="&lt;span style=&quot;color: rgb(0, 0, 0);&quot;&gt;Ввод матрицы&lt;/span&gt;" style="shape=loopLimit;whiteSpace=wrap;html=1;direction=west;" vertex="1" parent="1">
          <mxGeometry x="10" y="-480" width="200" height="40" as="geometry" />
        </mxCell>
        <mxCell id="i0VjAuOUxVdBlSVnc6zS-242" value="A" style="ellipse;whiteSpace=wrap;html=1;aspect=fixed;" vertex="1" parent="1">
          <mxGeometry x="90" y="-420" width="40" height="40" as="geometry" />
        </mxCell>
        <mxCell id="i0VjAuOUxVdBlSVnc6zS-314" value="&lt;span style=&quot;color: rgb(0, 0, 0);&quot;&gt;matrix[i][j] = 0&lt;/span&gt;" style="rounded=0;whiteSpace=wrap;html=1;" vertex="1" parent="1">
          <mxGeometry x="10" y="-710" width="200" height="30" as="geometry" />
        </mxCell>
        <mxCell id="i0VjAuOUxVdBlSVnc6zS-315" value="&lt;span style=&quot;color: rgb(0, 0, 0);&quot;&gt;matrix[i][j] = 1&lt;/span&gt;" style="rounded=0;whiteSpace=wrap;html=1;" vertex="1" parent="1">
          <mxGeometry x="230" y="-710" width="200" height="30" as="geometry" />
        </mxCell>
        <mxCell id="i0VjAuOUxVdBlSVnc6zS-321" style="edgeStyle=orthogonalEdgeStyle;rounded=0;orthogonalLoop=1;jettySize=auto;html=1;" edge="1" parent="1" source="i0VjAuOUxVdBlSVnc6zS-319" target="i0VjAuOUxVdBlSVnc6zS-320">
          <mxGeometry relative="1" as="geometry" />
        </mxCell>
        <mxCell id="i0VjAuOUxVdBlSVnc6zS-319" value="i = 1" style="rounded=0;whiteSpace=wrap;html=1;" vertex="1" parent="1">
          <mxGeometry x="470" y="-1100" width="200" height="30" as="geometry" />
        </mxCell>
        <mxCell id="i0VjAuOUxVdBlSVnc6zS-323" style="edgeStyle=orthogonalEdgeStyle;rounded=0;orthogonalLoop=1;jettySize=auto;html=1;" edge="1" parent="1" source="i0VjAuOUxVdBlSVnc6zS-320" target="i0VjAuOUxVdBlSVnc6zS-322">
          <mxGeometry relative="1" as="geometry" />
        </mxCell>
        <mxCell id="i0VjAuOUxVdBlSVnc6zS-320" value="Вывод матрицы&lt;br&gt;&lt;div&gt;&lt;font style=&quot;color: rgb(0, 0, 0);&quot;&gt;i &amp;gt; 5&lt;/font&gt;&lt;/div&gt;" style="shape=loopLimit;whiteSpace=wrap;html=1;" vertex="1" parent="1">
          <mxGeometry x="470" y="-1050" width="200" height="40" as="geometry" />
        </mxCell>
        <mxCell id="i0VjAuOUxVdBlSVnc6zS-325" style="edgeStyle=orthogonalEdgeStyle;rounded=0;orthogonalLoop=1;jettySize=auto;html=1;" edge="1" parent="1" source="i0VjAuOUxVdBlSVnc6zS-322" target="i0VjAuOUxVdBlSVnc6zS-324">
          <mxGeometry relative="1" as="geometry" />
        </mxCell>
        <mxCell id="i0VjAuOUxVdBlSVnc6zS-322" value="j = 1" style="rounded=0;whiteSpace=wrap;html=1;" vertex="1" parent="1">
          <mxGeometry x="470" y="-990" width="200" height="30" as="geometry" />
        </mxCell>
        <mxCell id="i0VjAuOUxVdBlSVnc6zS-327" style="edgeStyle=orthogonalEdgeStyle;rounded=0;orthogonalLoop=1;jettySize=auto;html=1;" edge="1" parent="1" source="i0VjAuOUxVdBlSVnc6zS-324" target="i0VjAuOUxVdBlSVnc6zS-326">
          <mxGeometry relative="1" as="geometry" />
        </mxCell>
        <mxCell id="i0VjAuOUxVdBlSVnc6zS-324" value="Вывод ячейки&lt;br&gt;&lt;div&gt;&lt;font style=&quot;color: rgb(0, 0, 0);&quot;&gt;j &amp;gt; 5&lt;/font&gt;&lt;/div&gt;" style="shape=loopLimit;whiteSpace=wrap;html=1;" vertex="1" parent="1">
          <mxGeometry x="470" y="-940" width="200" height="40" as="geometry" />
        </mxCell>
        <mxCell id="i0VjAuOUxVdBlSVnc6zS-329" style="edgeStyle=orthogonalEdgeStyle;rounded=0;orthogonalLoop=1;jettySize=auto;html=1;" edge="1" parent="1" source="i0VjAuOUxVdBlSVnc6zS-326" target="i0VjAuOUxVdBlSVnc6zS-328">
          <mxGeometry relative="1" as="geometry" />
        </mxCell>
        <mxCell id="i0VjAuOUxVdBlSVnc6zS-326" value="Вывод matrix[i][j]" style="shape=parallelogram;perimeter=parallelogramPerimeter;whiteSpace=wrap;html=1;fixedSize=1;" vertex="1" parent="1">
          <mxGeometry x="470" y="-880" width="200" height="30" as="geometry" />
        </mxCell>
        <mxCell id="i0VjAuOUxVdBlSVnc6zS-331" style="edgeStyle=orthogonalEdgeStyle;rounded=0;orthogonalLoop=1;jettySize=auto;html=1;" edge="1" parent="1" source="i0VjAuOUxVdBlSVnc6zS-328" target="i0VjAuOUxVdBlSVnc6zS-330">
          <mxGeometry relative="1" as="geometry" />
        </mxCell>
        <mxCell id="i0VjAuOUxVdBlSVnc6zS-328" value="j = j + 1" style="rounded=0;whiteSpace=wrap;html=1;" vertex="1" parent="1">
          <mxGeometry x="470" y="-830" width="200" height="30" as="geometry" />
        </mxCell>
        <mxCell id="i0VjAuOUxVdBlSVnc6zS-335" style="edgeStyle=orthogonalEdgeStyle;rounded=0;orthogonalLoop=1;jettySize=auto;html=1;" edge="1" parent="1" source="i0VjAuOUxVdBlSVnc6zS-330" target="i0VjAuOUxVdBlSVnc6zS-332">
          <mxGeometry relative="1" as="geometry" />
        </mxCell>
        <mxCell id="i0VjAuOUxVdBlSVnc6zS-330" value="Вывод ячейки" style="shape=loopLimit;whiteSpace=wrap;html=1;direction=west;" vertex="1" parent="1">
          <mxGeometry x="470" y="-780" width="200" height="40" as="geometry" />
        </mxCell>
        <mxCell id="i0VjAuOUxVdBlSVnc6zS-336" style="edgeStyle=orthogonalEdgeStyle;rounded=0;orthogonalLoop=1;jettySize=auto;html=1;" edge="1" parent="1" source="i0VjAuOUxVdBlSVnc6zS-332" target="i0VjAuOUxVdBlSVnc6zS-333">
          <mxGeometry relative="1" as="geometry" />
        </mxCell>
        <mxCell id="i0VjAuOUxVdBlSVnc6zS-332" value="i = i + 1" style="rounded=0;whiteSpace=wrap;html=1;" vertex="1" parent="1">
          <mxGeometry x="470" y="-720" width="200" height="30" as="geometry" />
        </mxCell>
        <mxCell id="i0VjAuOUxVdBlSVnc6zS-338" style="edgeStyle=orthogonalEdgeStyle;rounded=0;orthogonalLoop=1;jettySize=auto;html=1;" edge="1" parent="1" source="i0VjAuOUxVdBlSVnc6zS-333" target="i0VjAuOUxVdBlSVnc6zS-337">
          <mxGeometry relative="1" as="geometry" />
        </mxCell>
        <mxCell id="i0VjAuOUxVdBlSVnc6zS-333" value="Вывод ячейки" style="shape=loopLimit;whiteSpace=wrap;html=1;direction=west;" vertex="1" parent="1">
          <mxGeometry x="470" y="-670" width="200" height="40" as="geometry" />
        </mxCell>
        <mxCell id="i0VjAuOUxVdBlSVnc6zS-337" value="Конец" style="rounded=1;whiteSpace=wrap;html=1;arcSize=50;" vertex="1" parent="1">
          <mxGeometry x="470" y="-610" width="200" height="30" as="geometry" />
        </mxCell>
        <mxCell id="i0VjAuOUxVdBlSVnc6zS-340" style="edgeStyle=orthogonalEdgeStyle;rounded=0;orthogonalLoop=1;jettySize=auto;html=1;" edge="1" parent="1" source="i0VjAuOUxVdBlSVnc6zS-339" target="i0VjAuOUxVdBlSVnc6zS-319">
          <mxGeometry relative="1" as="geometry" />
        </mxCell>
        <mxCell id="i0VjAuOUxVdBlSVnc6zS-339" value="A" style="ellipse;whiteSpace=wrap;html=1;aspect=fixed;" vertex="1" parent="1">
          <mxGeometry x="550" y="-1160" width="40" height="40" as="geometry" />
        </mxCell>
        <mxCell id="i0VjAuOUxVdBlSVnc6zS-341" value="i - счетчик цикла" style="strokeWidth=1;html=1;shape=mxgraph.flowchart.annotation_1;align=left;pointerEvents=1;" vertex="1" parent="1">
          <mxGeometry x="240" y="-1110" width="5" height="30" as="geometry" />
        </mxCell>
        <mxCell id="i0VjAuOUxVdBlSVnc6zS-342" value="" style="endArrow=none;html=1;rounded=0;entryX=0;entryY=0.5;entryDx=0;entryDy=0;entryPerimeter=0;dashed=1;" edge="1" parent="1" target="i0VjAuOUxVdBlSVnc6zS-341">
          <mxGeometry width="50" height="50" relative="1" as="geometry">
            <mxPoint x="210" y="-1095" as="sourcePoint" />
            <mxPoint x="300" y="-1105" as="targetPoint" />
          </mxGeometry>
        </mxCell>
        <mxCell id="i0VjAuOUxVdBlSVnc6zS-343" value="j - счетчик цикла" style="strokeWidth=1;html=1;shape=mxgraph.flowchart.annotation_1;align=left;pointerEvents=1;" vertex="1" parent="1">
          <mxGeometry x="240" y="-1000" width="5" height="30" as="geometry" />
        </mxCell>
        <mxCell id="i0VjAuOUxVdBlSVnc6zS-344" value="" style="endArrow=none;html=1;rounded=0;entryX=0;entryY=0.5;entryDx=0;entryDy=0;entryPerimeter=0;dashed=1;" edge="1" parent="1" target="i0VjAuOUxVdBlSVnc6zS-343">
          <mxGeometry width="50" height="50" relative="1" as="geometry">
            <mxPoint x="210" y="-985" as="sourcePoint" />
            <mxPoint x="300" y="-995" as="targetPoint" />
          </mxGeometry>
        </mxCell>
      </root>
    </mxGraphModel>
  </diagram>
</mxfile>
